<?xml version="1.0" standalone="no"?>
<!DOCTYPE svg PUBLIC "-//W3C//DTD SVG 20010904//EN"
 "http://www.w3.org/TR/2001/REC-SVG-20010904/DTD/svg10.dtd">
<svg version="1.0" xmlns="http://www.w3.org/2000/svg"
 width="192.000000pt" height="192.000000pt" viewBox="0 0 192.000000 192.000000"
 preserveAspectRatio="xMidYMid meet">

<g transform="translate(0.000000,192.000000) scale(0.100000,-0.100000)"
fill="#c32439" stroke="none">
<path d="M83 1793 c-10 -4 -13 -180 -13 -833 0 -746 2 -828 16 -834 22 -8 117
-7 131 2 6 4 13 30 15 57 l3 50 725 0 725 0 3 -50 c2 -27 9 -53 15 -57 14 -9
109 -10 131 -2 14 6 16 88 16 834 0 746 -2 828 -16 834 -20 8 -108 8 -128 0
-14 -5 -16 -36 -16 -240 l0 -234 -45 0 -44 0 -3 138 -3 137 -184 3 c-141 2
-186 -1 -193 -10 -4 -7 -8 -70 -8 -140 l0 -128 -30 0 -29 0 -3 138 -3 137
-185 0 -185 0 -3 -137 -3 -138 -29 0 -30 0 0 128 c0 70 -4 133 -8 140 -7 9
-52 12 -193 10 l-184 -3 -3 -137 -3 -138 -44 0 -45 0 0 234 c0 204 -2 235 -16
240 -18 7 -113 7 -131 -1z m97 -833 l0 -780 -30 0 -30 0 0 780 0 780 30 0 30
0 0 -780z m1620 0 l0 -780 -30 0 -30 0 0 780 0 780 30 0 30 0 0 -780z m-1310
551 c0 -24 5 -41 14 -44 21 -8 36 13 36 50 l0 34 58 -3 57 -3 0 -110 0 -110
-142 -3 -143 -3 0 116 0 115 60 0 60 0 0 -39z m442 2 c3 -33 6 -38 28 -38 22
0 25 5 28 38 l3 37 55 0 54 0 0 -115 0 -115 -140 0 -140 0 0 115 0 115 54 0
55 0 3 -37z m448 4 c0 -37 15 -58 36 -50 9 3 14 20 14 44 l0 39 60 0 60 0 0
-115 0 -116 -142 3 -143 3 -3 99 c-1 55 0 106 2 113 4 9 24 13 61 13 l55 0 0
-33z m310 -487 l0 -240 -45 0 -44 0 -3 138 -3 137 -184 3 c-141 2 -186 -1
-193 -10 -4 -7 -8 -70 -8 -140 l0 -128 -30 0 -29 0 -3 138 -3 137 -185 0 -185
0 -3 -137 -3 -138 -29 0 -30 0 0 128 c0 70 -4 133 -8 140 -7 9 -52 12 -193 10
l-184 -3 -3 -137 -3 -138 -44 0 -45 0 0 240 0 240 730 0 730 0 0 -240z m-1200
-49 c0 -24 5 -41 14 -44 21 -8 36 13 36 50 l0 34 58 -3 57 -3 0 -110 0 -110
-142 -3 -143 -3 0 116 0 115 60 0 60 0 0 -39z m440 5 c0 -18 7 -39 15 -46 22
-19 45 5 45 46 l0 34 55 0 55 0 0 -115 0 -115 -140 0 -140 0 0 115 0 115 55 0
55 0 0 -34z m450 1 c0 -37 15 -58 36 -50 9 3 14 20 14 44 l0 39 60 0 60 0 0
-115 0 -116 -142 3 -143 3 -3 99 c-1 55 0 106 2 113 4 9 24 13 61 13 l55 0 0
-33z m310 -472 l0 -225 -45 0 -45 0 0 134 c0 113 -2 135 -16 140 -31 12 -349
7 -362 -6 -8 -8 -12 -54 -12 -140 l0 -128 -30 0 -29 0 -3 138 -3 137 -185 0
-185 0 -3 -137 -3 -138 -29 0 -30 0 0 128 c0 86 -4 132 -12 140 -13 13 -331
18 -362 6 -14 -5 -16 -27 -16 -140 l0 -134 -45 0 -45 0 0 225 0 225 730 0 730
0 0 -225z m-1200 -39 c0 -38 10 -49 34 -40 10 4 16 18 16 40 l0 34 60 0 60 0
0 -110 0 -110 -145 0 -145 0 0 110 0 110 60 0 60 0 0 -34z m440 5 c0 -37 24
-59 45 -41 8 7 15 25 15 41 0 28 1 29 55 29 l55 0 0 -110 0 -110 -140 0 -140
0 0 110 0 110 55 0 c54 0 55 -1 55 -29z m450 -5 c0 -22 6 -36 16 -40 24 -9 34
2 34 40 l0 34 60 0 60 0 0 -110 0 -110 -145 0 -145 0 0 110 0 110 60 0 60 0 0
-34z"/>
</g>
</svg>
