<?xml version="1.0" standalone="no"?>
<!DOCTYPE svg PUBLIC "-//W3C//DTD SVG 20010904//EN"
 "http://www.w3.org/TR/2001/REC-SVG-20010904/DTD/svg10.dtd">
<svg version="1.0" xmlns="http://www.w3.org/2000/svg"
 width="512.000000pt" height="512.000000pt" viewBox="0 0 512.000000 512.000000"
 preserveAspectRatio="xMidYMid meet">

<g transform="translate(0.000000,512.000000) scale(0.100000,-0.100000)"
fill="#000000" stroke="none">
<path d="M2865 5109 c-32 -18 -45 -40 -45 -76 0 -38 37 -83 69 -83 10 0 49
-27 85 -60 154 -139 243 -141 392 -9 42 38 80 69 84 69 5 0 38 -28 76 -61 85
-78 160 -114 216 -105 59 10 115 42 188 107 36 33 71 59 78 59 13 0 40 -25
107 -100 62 -70 162 -90 209 -44 49 50 24 127 -45 141 -20 4 -42 21 -63 49
-18 23 -46 53 -62 67 -31 26 -110 57 -148 57 -54 0 -118 -33 -192 -101 -42
-38 -80 -69 -84 -69 -9 0 -48 30 -122 96 -28 25 -69 48 -102 58 -53 17 -59 17
-111 0 -41 -12 -75 -35 -132 -85 -43 -38 -81 -69 -85 -69 -4 0 -37 27 -73 59
-94 86 -193 127 -240 100z"/>
<path d="M3969 4595 c-15 -8 -30 -22 -34 -32 -5 -13 -172 -2324 -175 -2426 0
-4 -39 -6 -87 -5 l-88 3 -5 278 c-5 278 -5 279 -29 298 -29 24 -69 24 -101 2
-14 -10 -181 -142 -372 -295 l-348 -278 0 259 c0 172 -4 268 -11 285 -16 34
-63 53 -99 39 -14 -5 -185 -137 -378 -291 -193 -155 -354 -282 -356 -282 -3 0
-6 120 -8 266 l-3 266 -28 24 c-55 47 -56 46 -448 -266 -200 -159 -367 -290
-371 -290 -5 0 -8 119 -8 265 l0 266 -25 24 c-14 15 -36 25 -52 25 -33 0 -904
-518 -928 -552 -13 -20 -15 -143 -15 -1071 l0 -1049 29 -29 29 -29 2502 0
2502 0 29 29 29 29 0 1002 c0 1064 1 1046 -45 1064 -9 3 -79 6 -156 6 -103 0
-141 3 -144 13 -2 6 -41 547 -86 1202 -47 691 -86 1200 -93 1215 -21 47 -42
50 -331 49 -215 0 -275 -3 -296 -14z m475 -187 c4 -28 157 -2248 156 -2270 0
-5 -151 -8 -336 -8 l-336 0 7 63 c4 46 155 2224 155 2243 0 2 79 4 175 4 l174
0 5 -32z m-3565 -2502 c35 -38 78 -35 136 10 26 19 190 150 365 290 174 139
320 254 324 254 3 0 6 -119 6 -265 l0 -266 25 -24 c53 -54 57 -52 452 265 200
160 365 290 368 290 3 0 5 -115 5 -256 0 -175 4 -262 12 -277 17 -33 39 -46
75 -47 27 0 88 45 395 291 l363 291 5 -218 c5 -239 9 -255 61 -273 22 -8 253
-11 755 -11 l724 0 0 -895 0 -895 -685 0 -685 0 0 573 0 574 -26 24 -26 24
-343 3 c-226 2 -358 -1 -385 -8 -72 -19 -70 2 -70 -630 l0 -560 -1280 0 -1280
0 0 958 0 957 338 203 337 202 5 -279 c5 -279 5 -279 29 -305z m2531 -1226 l0
-510 -255 0 -255 0 0 510 0 510 255 0 255 0 0 -510z"/>
<path d="M541 1171 c-30 -30 -32 -63 -29 -348 4 -336 -17 -307 226 -311 200
-4 234 0 262 30 19 21 20 36 20 313 l0 292 -23 21 c-22 21 -32 22 -230 22
-192 0 -208 -1 -226 -19z m309 -321 l0 -170 -85 0 -85 0 0 170 0 170 85 0 85
0 0 -170z"/>
<path d="M1219 1164 c-24 -26 -24 -26 -27 -284 -4 -291 2 -331 48 -355 42 -22
378 -22 420 0 47 24 52 60 48 352 -3 261 -3 261 -27 287 l-24 26 -207 0 -207
0 -24 -26z m319 -311 l-3 -168 -82 -3 -83 -3 0 171 0 170 85 0 85 0 -2 -167z"/>
<path d="M1905 1165 l-25 -24 0 -289 0 -289 26 -24 c25 -24 27 -24 230 -24
198 0 204 1 226 23 23 22 23 27 26 295 2 149 0 282 -3 295 -3 12 -14 31 -25
42 -19 19 -34 20 -225 20 -205 0 -206 0 -230 -25z m315 -315 l0 -170 -85 0
-85 0 0 170 0 170 85 0 85 0 0 -170z"/>
</g>
</svg>
