<?xml version="1.0" standalone="no"?>
<!DOCTYPE svg PUBLIC "-//W3C//DTD SVG 20010904//EN"
 "http://www.w3.org/TR/2001/REC-SVG-20010904/DTD/svg10.dtd">
<svg version="1.0" xmlns="http://www.w3.org/2000/svg"
 width="512.000000pt" height="512.000000pt" viewBox="0 0 512.000000 512.000000"
 preserveAspectRatio="xMidYMid meet">

<g transform="translate(0.000000,512.000000) scale(0.100000,-0.100000)"
fill="#000000" stroke="none">
<path d="M908 4253 l-3 -308 -26 -50 c-25 -46 -83 -108 -181 -192 -21 -18 -38
-35 -38 -37 0 -7 82 -101 92 -104 14 -6 170 134 215 193 79 104 87 137 91 408
4 272 -5 254 104 214 163 -59 277 -180 330 -351 19 -63 20 -83 14 -220 -3 -83
-9 -177 -12 -208 l-7 -58 -98 0 -99 0 0 -75 0 -75 508 0 c478 0 509 -2 549
-20 56 -25 83 -70 83 -138 0 -48 -4 -57 -39 -95 l-40 -42 -273 -5 -273 -5 -3
-72 -3 -72 238 -3 c224 -3 240 -4 273 -25 91 -57 96 -190 9 -251 -20 -14 -60
-18 -269 -22 l-245 -5 0 -75 0 -75 187 -5 c168 -5 189 -7 215 -26 88 -65 79
-192 -18 -249 -30 -18 -56 -20 -212 -23 l-178 -4 3 -71 3 -72 97 -5 c76 -4
102 -9 124 -25 86 -65 82 -181 -9 -249 -21 -15 -47 -21 -117 -24 l-90 -4 0
-76 0 -75 98 5 c125 6 184 31 250 103 80 87 100 183 62 296 -12 34 -20 62 -18
63 2 2 19 9 38 16 50 20 118 86 148 145 37 70 38 178 2 255 l-25 53 25 16 c55
36 80 65 109 123 49 97 43 207 -16 301 l-24 38 30 25 c16 14 44 52 60 86 55
109 39 242 -40 332 -22 25 -65 57 -97 73 l-57 28 -359 3 -359 3 7 52 c3 29 9
122 13 207 5 128 3 169 -11 234 -46 205 -204 391 -404 475 -69 29 -186 51
-267 51 l-64 0 -3 -307z"/>
<path d="M2385 4482 c-45 -5 -60 -11 -58 -22 1 -8 4 -41 8 -73 l7 -58 131 7
c560 28 1090 -207 1462 -648 l40 -48 58 46 58 45 -23 31 c-39 56 -210 228
-287 290 -268 217 -592 362 -921 413 -106 17 -383 27 -475 17z"/>
<path d="M2093 4432 c-34 -10 -64 -20 -67 -23 -6 -6 23 -119 34 -132 4 -4 37
0 74 9 52 13 66 20 62 33 -3 9 -10 42 -16 74 -6 31 -14 57 -18 56 -4 0 -35 -8
-69 -17z"/>
<path d="M1793 4330 c-35 -16 -63 -31 -63 -35 0 -14 61 -125 69 -125 5 0 34
12 65 26 43 19 55 30 51 42 -17 56 -44 117 -51 119 -5 1 -37 -11 -71 -27z"/>
<path d="M456 3499 l-79 -69 -188 0 -189 0 0 -780 0 -780 200 0 200 0 152 -61
c498 -199 587 -221 913 -223 l190 -1 3 71 3 71 -193 6 c-305 9 -368 24 -773
182 l-269 105 -138 0 -138 0 0 630 0 630 143 0 142 1 98 84 c54 46 98 87 99
91 1 7 -85 113 -92 113 -3 0 -41 -31 -84 -70z"/>
<path d="M3117 3529 c-131 -31 -237 -160 -237 -290 0 -22 9 -67 20 -100 12
-34 20 -62 18 -63 -2 -1 -22 -11 -46 -21 -24 -10 -65 -42 -91 -71 -84 -92
-103 -217 -50 -328 l24 -48 -25 -16 c-41 -26 -95 -86 -115 -128 -24 -49 -32
-168 -15 -221 7 -21 24 -55 37 -76 l24 -38 -30 -25 c-16 -14 -44 -52 -60 -86
-55 -109 -39 -242 40 -332 22 -25 65 -57 97 -73 l57 -28 359 -3 359 -3 -7 -52
c-3 -29 -9 -122 -13 -207 -5 -128 -3 -169 11 -234 43 -192 178 -362 356 -449
104 -51 210 -77 314 -77 l65 0 3 308 3 307 27 52 c24 45 157 180 204 206 8 4
14 12 14 17 0 10 -78 103 -91 108 -14 6 -177 -141 -219 -196 -76 -102 -84
-136 -88 -404 -4 -273 5 -255 -104 -215 -163 59 -277 180 -330 351 -19 63 -20
83 -14 220 3 83 9 177 12 209 l7 57 98 0 99 0 0 75 0 74 -517 3 c-477 3 -521
4 -551 21 -48 26 -72 72 -72 135 0 48 4 57 39 95 l40 42 273 5 273 5 3 72 3
72 -238 3 c-224 3 -240 4 -273 25 -91 57 -96 190 -9 251 20 14 60 18 269 22
l245 5 0 75 0 75 -187 5 c-168 5 -189 7 -215 26 -88 65 -79 192 18 249 30 18
56 20 212 23 l178 4 -3 71 -3 72 -97 5 c-76 4 -102 9 -124 25 -86 65 -82 181
9 249 21 15 47 21 117 24 l90 4 0 74 0 74 -77 -1 c-43 -1 -95 -5 -116 -10z"/>
<path d="M3467 3533 c-4 -3 -7 -36 -7 -73 l0 -67 193 -6 c187 -5 313 -21 427
-54 30 -8 181 -64 336 -124 l281 -109 136 0 137 0 0 -630 0 -630 -142 0 -143
-1 -101 -87 c-115 -98 -111 -81 -35 -167 l31 -36 82 71 81 70 188 0 189 0 0
780 0 780 -199 0 -198 0 -229 90 c-365 144 -453 170 -659 190 -115 11 -358 13
-368 3z"/>
<path d="M4650 2855 l0 -75 75 0 75 0 0 75 0 75 -75 0 -75 0 0 -75z"/>
<path d="M4650 2555 l0 -75 75 0 75 0 0 75 0 75 -75 0 -75 0 0 -75z"/>
<path d="M1087 1434 l-57 -46 20 -28 c11 -15 52 -63 92 -106 302 -322 685
-528 1118 -599 199 -32 537 -29 533 5 -1 8 -4 41 -8 73 l-7 58 -131 -7 c-337
-17 -711 75 -990 242 -159 96 -357 266 -473 406 l-39 48 -58 -46z"/>
<path d="M3263 927 c-29 -13 -55 -25 -58 -28 -6 -6 32 -117 45 -132 7 -8 140
47 140 58 0 13 -61 125 -68 125 -4 -1 -30 -11 -59 -23z"/>
<path d="M2977 833 c-45 -12 -57 -19 -53 -32 3 -9 10 -42 16 -74 9 -47 15 -57
28 -53 9 3 40 10 67 17 28 6 53 15 57 18 12 11 -27 136 -43 138 -8 1 -40 -6
-72 -14z"/>
</g>
</svg>
