<?xml version="1.0" standalone="no"?>
<!DOCTYPE svg PUBLIC "-//W3C//DTD SVG 20010904//EN"
 "http://www.w3.org/TR/2001/REC-SVG-20010904/DTD/svg10.dtd">
<svg version="1.0" xmlns="http://www.w3.org/2000/svg"
 width="495.000000pt" height="504.000000pt" viewBox="0 0 495.000000 504.000000"
 preserveAspectRatio="xMidYMid meet">

<g transform="translate(0.000000,504.000000) scale(0.100000,-0.100000)"
fill="#c32439" stroke="none">
<path d="M380 2390 l0 -2040 2060 0 2060 0 0 60 0 60 -2000 0 -2000 0 0 1980
0 1980 -60 0 -60 0 0 -2040z"/>
<path d="M1832 2628 l3 -1803 365 0 365 0 0 1800 0 1800 -368 3 -367 2 2
-1802z m606 0 l-3 -1683 -240 0 -240 0 -3 1683 -2 1682 245 0 245 0 -2 -1682z"/>
<path d="M870 1995 l0 -1175 360 0 360 0 0 1175 0 1175 -360 0 -360 0 0 -1175z
m600 0 l0 -1055 -240 0 -240 0 0 1055 0 1055 240 0 240 0 0 -1055z"/>
<path d="M2810 1995 l0 -1175 360 0 360 0 0 1175 0 1175 -360 0 -360 0 0
-1175z m600 0 l0 -1055 -240 0 -240 0 0 1055 0 1055 240 0 240 0 0 -1055z"/>
<path d="M3818 2142 l-38 -3 0 -660 0 -659 360 0 360 0 0 660 0 660 -302 1
c-167 0 -312 1 -323 2 -11 1 -37 1 -57 -1z m557 -657 l0 -540 -237 -3 -238 -2
0 545 0 545 238 -2 237 -3 0 -540z"/>
</g>
</svg>
