<?xml version="1.0" standalone="no"?>
<!DOCTYPE svg PUBLIC "-//W3C//DTD SVG 20010904//EN"
 "http://www.w3.org/TR/2001/REC-SVG-20010904/DTD/svg10.dtd">
<svg version="1.0" xmlns="http://www.w3.org/2000/svg"
 width="512.000000pt" height="512.000000pt" viewBox="0 0 512.000000 512.000000"
 preserveAspectRatio="xMidYMid meet">

<g transform="translate(0.000000,512.000000) scale(0.100000,-0.100000)"
fill="#c32439" stroke="none">
<path d="M515 5106 c-40 -19 -491 -473 -505 -509 -5 -16 -10 -42 -10 -58 0
-41 442 -913 484 -955 26 -27 78 -47 341 -134 l310 -102 358 -357 c196 -196
356 -359 354 -364 -1 -4 -369 -324 -817 -710 -478 -413 -834 -727 -862 -761
-232 -289 -219 -698 31 -946 90 -88 159 -131 277 -172 219 -76 471 -31 656
116 32 26 319 348 674 756 339 391 620 708 624 703 4 -4 251 -306 548 -669
298 -364 566 -684 597 -710 194 -170 466 -255 716 -226 436 51 770 386 821
824 23 191 -25 407 -128 581 -94 157 -147 201 -929 756 -391 277 -712 506
-714 508 -8 6 72 84 101 99 22 11 91 14 350 14 353 0 413 7 509 56 41 20 124
97 342 313 351 347 399 410 447 583 69 247 8 511 -163 704 -55 61 -102 81
-164 69 -33 -6 -70 -39 -278 -245 -132 -131 -253 -243 -268 -249 -126 -48
-244 70 -196 196 6 15 118 136 249 268 206 208 239 245 245 278 12 62 -8 109
-69 164 -242 215 -588 252 -872 93 -69 -39 -120 -85 -391 -355 -279 -277 -315
-317 -342 -375 -17 -36 -35 -89 -41 -119 -5 -30 -10 -198 -10 -375 0 -286 -2
-325 -18 -356 -9 -19 -66 -77 -125 -129 l-109 -94 -381 381 -382 382 -104 313
c-87 265 -108 317 -135 343 -46 46 -914 484 -958 484 -18 -1 -46 -7 -63 -14z
m3578 -311 l48 -17 -174 -177 c-181 -183 -215 -230 -243 -336 -26 -97 -12
-222 37 -317 28 -54 113 -143 167 -175 136 -80 310 -82 448 -6 28 15 123 100
225 201 l177 173 16 -48 c42 -119 28 -259 -36 -372 -35 -61 -525 -565 -588
-604 -34 -21 -47 -22 -400 -27 -353 -5 -367 -6 -423 -29 -32 -13 -85 -44 -118
-69 -38 -31 -439 -486 -1145 -1302 -597 -690 -1102 -1269 -1122 -1287 -198
-173 -510 -112 -622 122 -70 147 -40 325 78 456 25 28 613 541 1307 1139 693
599 1271 1104 1283 1124 13 19 36 63 50 98 l27 63 5 366 5 366 28 40 c16 23
146 157 290 300 273 269 306 295 424 329 61 17 191 12 256 -11z m-2787 -369
c7 -6 55 -144 109 -306 l97 -295 400 -401 400 -401 -111 -97 c-62 -53 -115
-96 -119 -96 -4 0 -178 171 -387 381 -209 209 -396 388 -415 398 -19 10 -160
60 -312 110 l-277 92 -180 352 -179 352 136 137 135 136 346 -175 c190 -97
351 -181 357 -187z m2022 -2109 l54 -39 -20 -21 c-10 -12 -133 -159 -272 -327
-139 -168 -256 -309 -260 -314 -8 -8 -176 187 -194 224 -7 15 38 72 249 315
l257 296 66 -48 c37 -26 91 -64 120 -86z m792 -563 c261 -186 494 -358 518
-383 166 -171 222 -413 147 -638 -33 -98 -66 -152 -138 -229 -76 -82 -151
-131 -257 -168 -76 -27 -97 -30 -200 -30 -97 0 -128 5 -196 27 -78 26 -166 77
-231 134 -54 47 -743 897 -739 910 11 29 600 724 610 720 6 -3 225 -157 486
-343z"/>
<path d="M692 880 c-70 -16 -122 -99 -108 -173 25 -135 215 -160 279 -37 56
109 -49 238 -171 210z"/>
</g>
</svg>
