<?xml version="1.0" standalone="no"?>
<!DOCTYPE svg PUBLIC "-//W3C//DTD SVG 20010904//EN"
 "http://www.w3.org/TR/2001/REC-SVG-20010904/DTD/svg10.dtd">
<svg version="1.0" xmlns="http://www.w3.org/2000/svg"
 width="225.000000pt" height="225.000000pt" viewBox="0 0 225.000000 225.000000"
 preserveAspectRatio="xMidYMid meet">

<g transform="translate(0.000000,225.000000) scale(0.100000,-0.100000)"
fill="#000000" stroke="none">
<path d="M425 1896 c-16 -8 -116 -99 -222 -203 -166 -162 -193 -193 -199 -226
-4 -24 -1 -51 7 -72 15 -38 345 -387 394 -417 94 -57 215 19 202 128 -4 36
-15 55 -71 116 l-67 73 553 3 c598 3 631 1 729 -48 227 -115 299 -416 148
-624 -19 -26 -44 -61 -56 -78 -28 -38 -30 -98 -6 -139 25 -42 93 -73 141 -64
57 10 139 101 195 217 59 121 71 178 70 323 0 101 -4 133 -26 200 -84 256
-298 436 -564 475 -38 5 -316 10 -628 10 l-559 0 61 63 c86 87 103 140 63 204
-36 61 -108 86 -165 59z"/>
</g>
</svg>
