<?xml version="1.0" standalone="no"?>
<!DOCTYPE svg PUBLIC "-//W3C//DTD SVG 20010904//EN"
 "http://www.w3.org/TR/2001/REC-SVG-20010904/DTD/svg10.dtd">
<svg version="1.0" xmlns="http://www.w3.org/2000/svg"
 width="512.000000pt" height="512.000000pt" viewBox="0 0 512.000000 512.000000"
 preserveAspectRatio="xMidYMid meet">

<g transform="translate(0.000000,512.000000) scale(0.100000,-0.100000)"
fill="#c32439" stroke="none">
<path d="M1253 5105 c-62 -27 -73 -61 -73 -230 0 -129 3 -154 19 -181 23 -38
76 -64 130 -64 26 0 41 -4 41 -12 -1 -7 -22 -150 -48 -318 l-47 -305 -225 -6
c-259 -7 -325 -20 -475 -94 -235 -116 -413 -332 -487 -590 l-23 -80 -3 -1100
c-3 -1217 -7 -1145 61 -1222 57 -65 95 -77 255 -81 l142 -4 0 -103 0 -102 -92
-5 c-109 -6 -174 -33 -228 -94 -54 -62 -74 -118 -74 -209 1 -104 27 -168 96
-230 91 -82 -116 -75 2374 -75 2223 0 2223 0 2279 21 73 27 137 92 165 167 18
45 21 72 18 132 -5 90 -30 150 -84 204 -57 57 -113 79 -216 84 l-88 4 0 103 0
102 65 5 c75 6 140 40 181 93 54 72 54 68 54 856 0 512 -3 735 -11 752 -11 25
-47 47 -75 47 -8 0 -26 -11 -39 -25 l-25 -24 0 -729 c0 -508 -3 -739 -11 -761
-23 -66 156 -61 -2294 -61 -2434 0 -2268 -4 -2294 57 -9 22 -11 299 -8 1103 3
1212 -4 1110 84 1290 40 82 60 108 142 190 106 105 196 160 331 202 l75 23
1945 3 c1486 2 1952 0 1974 -10 55 -22 56 -34 56 -542 l0 -465 26 -20 c15 -12
33 -21 40 -21 28 0 63 24 74 49 8 19 10 171 8 507 -3 469 -3 480 -25 519 -28
52 -68 89 -123 114 -36 16 -66 21 -147 21 l-101 0 -6 28 c-3 15 -24 149 -46
297 -22 149 -43 280 -45 291 -4 20 0 22 51 26 63 5 101 29 126 79 14 27 18 60
18 164 0 148 -11 184 -69 222 l-34 23 -656 0 c-637 0 -657 -1 -689 -20 -62
-38 -72 -68 -72 -225 0 -122 3 -144 20 -173 28 -45 76 -72 131 -72 l46 0 -32
-202 c-18 -112 -40 -256 -50 -321 l-18 -117 -325 2 -326 3 -41 270 c-23 149
-45 291 -49 318 l-7 47 41 0 c57 0 106 23 130 62 18 29 20 50 20 183 0 170
-11 204 -75 231 -50 21 -1314 20 -1362 -1z m1287 -230 l0 -95 -605 0 -605 0 0
95 0 95 605 0 605 0 0 -95z m1980 0 l0 -95 -610 0 -610 0 0 95 0 95 610 0 610
0 0 -95z m-2127 -552 c26 -170 47 -314 47 -320 0 -10 -108 -13 -506 -13 l-507
0 5 33 c3 17 25 161 49 320 l44 287 411 0 410 0 47 -307z m1927 304 c0 -10 91
-595 95 -614 l5 -23 -511 0 -511 0 6 28 c3 15 24 149 46 297 22 149 43 280 45
293 l5 22 410 0 c226 0 410 -2 410 -3z m200 -3912 l0 -105 -845 0 -846 0 -24
-25 c-32 -31 -32 -69 0 -100 l24 -25 983 0 c916 0 985 -1 1017 -18 56 -28 76
-64 76 -137 0 -73 -20 -109 -76 -137 -32 -17 -159 -18 -2237 -18 -2424 0
-2251 -5 -2292 62 -27 44 -28 140 -1 184 41 68 -27 64 1164 64 l1076 0 20 26
c28 35 26 69 -4 99 l-24 25 -931 0 -930 0 0 105 0 105 1925 0 1925 0 0 -105z"/>
<path d="M3325 3355 c-67 -24 -115 -96 -115 -172 0 -15 -10 -28 -31 -38 -30
-16 -31 -16 -68 18 -46 41 -103 54 -158 36 -46 -14 -258 -217 -279 -266 -28
-65 -14 -136 37 -188 26 -28 28 -33 17 -62 -11 -29 -16 -31 -68 -35 -69 -5
-115 -35 -141 -92 -16 -34 -19 -67 -19 -196 0 -142 2 -160 23 -200 27 -55 74
-83 146 -90 49 -4 55 -8 64 -33 8 -25 5 -33 -21 -60 -52 -54 -66 -124 -38
-190 7 -18 65 -82 127 -143 87 -86 124 -115 157 -125 55 -16 109 -1 162 47 34
31 41 33 63 23 20 -9 25 -20 30 -65 7 -66 36 -115 85 -146 35 -22 47 -23 208
-23 169 0 171 0 212 27 49 33 69 68 80 140 6 45 11 54 34 62 23 8 32 5 62 -22
50 -44 104 -59 159 -43 32 10 68 39 155 125 63 61 120 123 128 138 30 57 13
148 -35 192 -24 22 -26 35 -9 71 9 21 18 25 52 25 55 0 115 36 143 85 21 37
23 52 23 203 0 143 -2 168 -20 202 -26 52 -72 82 -132 88 -45 4 -50 8 -64 40
-14 34 -13 37 10 61 13 14 29 36 35 48 15 30 14 109 -3 141 -8 15 -68 79 -133
143 -102 101 -124 118 -159 124 -54 8 -114 -8 -144 -40 -26 -28 -38 -30 -73
-14 -20 9 -26 21 -31 59 -8 58 -39 107 -86 134 -31 18 -54 21 -190 24 -116 1
-165 -2 -195 -13z m323 -215 c4 -77 15 -93 86 -116 28 -9 68 -25 88 -35 58
-30 83 -25 139 28 l50 47 94 -94 c52 -52 95 -99 95 -104 0 -5 -20 -31 -45 -57
-25 -26 -45 -55 -45 -64 0 -9 13 -47 29 -83 16 -37 32 -79 36 -94 11 -45 40
-63 114 -68 l66 -5 0 -135 0 -135 -72 -5 c-40 -3 -76 -9 -82 -15 -17 -18 -91
-199 -91 -223 0 -13 19 -43 45 -71 25 -26 45 -52 45 -58 0 -5 -43 -51 -95
-103 l-95 -93 -54 52 c-61 57 -84 62 -144 32 -20 -10 -61 -26 -89 -35 -29 -10
-56 -23 -60 -29 -5 -7 -10 -46 -13 -87 l-5 -75 -140 0 -140 0 -3 77 c-2 53 -7
80 -18 89 -26 22 -178 82 -207 82 -21 0 -43 -14 -82 -53 l-54 -53 -96 93 c-52
52 -95 98 -95 103 0 6 23 34 50 63 30 31 50 62 50 75 0 28 -66 188 -87 209 -9
10 -41 17 -91 20 l-77 5 0 135 0 135 70 6 c39 3 77 9 86 13 15 7 99 198 99
225 0 7 -22 36 -50 65 -27 29 -50 57 -50 62 0 5 43 52 95 104 l95 94 47 -46
c65 -62 80 -65 155 -30 35 16 80 34 101 41 47 16 57 35 57 109 0 32 3 62 7 66
4 3 68 5 142 4 l136 -3 3 -65z"/>
<path d="M3430 2730 c-113 -24 -217 -108 -268 -218 -23 -49 -27 -70 -27 -152
0 -82 4 -103 27 -152 53 -113 160 -195 283 -217 164 -29 330 60 403 217 23 49
27 70 27 152 0 88 -3 101 -33 162 -76 155 -248 242 -412 208z m139 -156 c136
-40 198 -187 134 -315 -83 -163 -310 -163 -395 0 -66 126 -3 273 134 316 56
18 65 18 127 -1z"/>
<path d="M624 3001 c-23 -10 -52 -34 -65 -52 -22 -32 -24 -43 -24 -165 0 -126
1 -132 27 -166 51 -67 62 -69 397 -66 286 3 301 4 328 24 63 47 73 75 73 209
0 110 -2 125 -23 156 -12 19 -42 44 -67 57 -43 21 -53 22 -325 22 -251 0 -284
-2 -321 -19z m586 -216 l0 -85 -265 0 -265 0 0 78 c0 43 3 82 7 85 3 4 123 7
265 7 l258 0 0 -85z"/>
<path d="M625 2406 c-37 -17 -70 -52 -84 -89 -6 -16 -11 -76 -11 -135 0 -129
18 -171 89 -209 43 -22 50 -23 325 -23 272 0 283 1 326 23 25 12 55 37 67 56
21 31 23 46 23 156 0 134 -10 162 -73 209 -27 20 -42 21 -330 23 -237 2 -308
0 -332 -11z m583 -218 l-3 -83 -260 0 -260 0 -3 83 -3 82 266 0 266 0 -3 -82z"/>
<path d="M609 1797 c-18 -12 -44 -38 -56 -56 -21 -31 -23 -46 -23 -151 0 -105
2 -120 23 -151 32 -48 80 -77 140 -84 29 -4 162 -5 297 -3 272 3 298 9 343 72
20 28 22 42 22 166 0 124 -2 138 -22 166 -44 62 -59 64 -391 64 -295 0 -300 0
-333 -23z m601 -207 l0 -80 -265 0 -265 0 0 80 0 80 265 0 265 0 0 -80z"/>
</g>
</svg>
