<?xml version="1.0" standalone="no"?>
<!DOCTYPE svg PUBLIC "-//W3C//DTD SVG 20010904//EN"
 "http://www.w3.org/TR/2001/REC-SVG-20010904/DTD/svg10.dtd">
<svg version="1.0" xmlns="http://www.w3.org/2000/svg"
 width="1080.000000pt" height="1080.000000pt" viewBox="0 0 1080.000000 1080.000000"
 preserveAspectRatio="xMidYMid meet">

<g transform="translate(0.000000,1080.000000) scale(0.100000,-0.100000)"
fill="#f4e9e9" stroke="none">
<path d="M4093 8836 c-71 -26 -99 -43 -153 -92 -132 -119 -173 -331 -97 -496
32 -70 108 -153 174 -190 29 -16 55 -33 57 -37 6 -9 129 -1292 124 -1295 -2
-2 -30 -18 -63 -36 -33 -18 -90 -65 -128 -103 l-67 -69 -558 157 c-306 86
-581 163 -609 171 -37 11 -53 21 -53 32 0 37 -60 141 -109 190 -79 79 -202
132 -306 132 -51 0 -140 -23 -201 -51 -152 -72 -256 -278 -226 -449 34 -190
172 -328 362 -362 110 -19 247 18 340 93 l40 32 612 -172 c337 -95 614 -174
615 -175 2 -2 10 -28 18 -60 18 -67 55 -144 101 -207 l33 -45 -369 -555 -370
-554 -72 -6 c-234 -20 -398 -196 -398 -429 0 -126 38 -217 124 -304 269 -269
736 -76 736 304 0 63 -16 136 -40 181 -11 19 27 79 377 605 l388 583 60 1
c141 0 275 59 383 167 l73 74 342 8 342 9 14 -21 c29 -42 120 -126 160 -146
254 -130 555 2 626 274 52 200 -42 398 -234 493 -72 36 -79 37 -180 37 -87 0
-116 -4 -164 -23 -72 -29 -147 -89 -193 -152 l-35 -48 -72 -6 c-40 -3 -172 -7
-294 -8 l-222 -3 -11 44 c-9 38 -8 46 7 63 10 12 207 201 437 422 250 239 426
400 435 398 168 -30 303 8 410 115 103 104 147 236 123 376 -21 120 -84 220
-180 284 -86 57 -143 74 -241 74 -137 0 -236 -44 -328 -144 -81 -88 -107 -167
-102 -315 l4 -103 -420 -404 -420 -403 -40 20 c-22 11 -41 21 -41 22 -1 0 -30
301 -65 668 l-63 667 57 60 c160 168 166 409 13 587 -109 128 -305 179 -463
120z"/>
</g>
</svg>
