<?xml version="1.0" standalone="no"?>
<!DOCTYPE svg PUBLIC "-//W3C//DTD SVG 20010904//EN"
 "http://www.w3.org/TR/2001/REC-SVG-20010904/DTD/svg10.dtd">
<svg version="1.0" xmlns="http://www.w3.org/2000/svg"
 width="512.000000pt" height="512.000000pt" viewBox="0 0 512.000000 512.000000"
 preserveAspectRatio="xMidYMid meet">

<g transform="translate(0.000000,512.000000) scale(0.100000,-0.100000)"
fill="#000000" stroke="none">
<path d="M3889 4875 c-94 -30 -135 -70 -404 -390 -143 -170 -777 -926 -1409
-1679 l-1148 -1369 -24 -111 c-12 -61 -75 -349 -138 -641 -64 -291 -116 -537
-116 -547 0 -26 36 -58 66 -58 14 0 287 107 607 239 320 131 592 241 604 245
13 4 502 578 1165 1369 629 749 1247 1484 1373 1635 359 427 360 429 359 572
-1 98 -30 174 -92 240 -81 87 -523 449 -582 477 -68 33 -189 41 -261 18z m195
-139 c48 -20 536 -430 568 -478 49 -72 47 -182 -4 -252 -32 -44 -399 -481
-407 -483 -6 -3 -804 664 -808 675 -3 7 319 395 390 471 23 24 60 52 82 62 48
22 133 24 179 5z m-325 -1000 l391 -329 -23 -26 c-13 -14 -505 -600 -1092
-1301 -587 -701 -1073 -1281 -1079 -1288 -9 -9 -19 6 -45 67 -43 107 -118 220
-205 310 -141 145 -294 230 -508 280 l-67 16 1101 1312 c965 1150 1103 1311
1118 1300 9 -7 193 -160 409 -341z m-2549 -2437 c41 -11 122 -42 179 -70 91
-44 116 -63 196 -142 101 -101 155 -182 211 -321 19 -49 34 -89 32 -90 -2 -2
-160 -67 -352 -145 -322 -132 -350 -142 -359 -124 -20 37 -133 140 -179 162
-27 12 -48 27 -48 31 0 10 149 700 155 718 6 16 45 11 165 -19z m-295 -879
c24 -17 53 -43 63 -58 l20 -28 -89 -36 c-49 -20 -89 -32 -89 -26 0 30 36 178
43 178 5 0 28 -14 52 -30z"/>
<path d="M3283 3607 c-12 -6 -380 -439 -818 -961 -692 -826 -795 -953 -795
-981 0 -40 26 -65 68 -65 29 0 81 60 759 868 400 477 763 909 805 960 88 104
97 135 52 171 -31 24 -41 25 -71 8z"/>
<path d="M3584 3352 c-7 -4 -372 -437 -813 -962 -702 -836 -801 -959 -799
-984 4 -38 47 -71 82 -62 17 4 238 260 753 874 400 477 761 907 802 955 58 68
74 95 74 119 0 49 -60 86 -99 60z"/>
</g>
</svg>
