<?xml version="1.0" standalone="no"?>
<!DOCTYPE svg PUBLIC "-//W3C//DTD SVG 20010904//EN"
 "http://www.w3.org/TR/2001/REC-SVG-20010904/DTD/svg10.dtd">
<svg version="1.0" xmlns="http://www.w3.org/2000/svg"
 width="510.000000pt" height="489.000000pt" viewBox="0 0 510.000000 489.000000"
 preserveAspectRatio="xMidYMid meet">

<g transform="translate(0.000000,489.000000) scale(0.100000,-0.100000)"
fill="#c32439" stroke="none">
<path d="M2495 4646 c-52 -24 -83 -68 -154 -222 -38 -82 -71 -159 -75 -170 -5
-16 -29 -30 -94 -53 -48 -17 -100 -33 -117 -37 -16 -4 -83 -27 -149 -51 l-118
-44 -47 26 c-25 14 -101 53 -168 86 -130 66 -191 80 -245 59 -81 -32 -301
-225 -342 -300 -25 -46 -28 -60 -23 -109 3 -31 22 -96 42 -146 55 -135 75
-197 74 -230 0 -17 -43 -117 -102 -235 l-102 -205 -135 -43 c-308 -98 -320
-110 -340 -337 -29 -348 -17 -368 295 -493 122 -49 113 -39 182 -232 33 -96
71 -202 84 -235 l22 -60 -57 -99 c-104 -179 -129 -236 -129 -291 0 -68 23
-113 103 -198 37 -40 92 -100 121 -135 107 -123 166 -128 407 -29 l163 67 213
-105 c118 -58 218 -105 224 -105 6 0 26 -53 46 -117 75 -242 111 -309 184
-340 51 -21 389 -40 442 -24 54 16 112 69 135 123 10 24 26 61 36 83 10 22 35
81 56 130 l39 90 239 79 238 79 31 -18 c17 -10 94 -50 171 -88 211 -106 236
-101 448 84 100 89 133 124 153 166 35 71 30 104 -46 295 -33 83 -60 161 -60
172 0 29 209 445 229 455 9 5 59 21 111 36 205 58 282 100 319 171 16 33 31
185 31 330 0 120 -2 134 -23 165 -34 51 -88 83 -252 152 l-150 63 -79 237 -79
238 27 47 c50 87 148 297 153 328 10 60 -38 142 -162 280 -116 128 -134 143
-194 160 -52 16 -56 15 -130 -9 -42 -14 -124 -46 -183 -71 -59 -25 -117 -46
-129 -46 -12 0 -76 29 -143 64 -66 36 -159 81 -206 101 -47 20 -92 45 -101 55
-8 10 -21 44 -28 76 -24 112 -70 249 -99 295 -51 79 -124 98 -382 98 -99 0
-154 -4 -175 -13z m407 -184 c3 -4 29 -79 56 -167 57 -184 69 -213 113 -249
28 -24 289 -156 308 -156 4 0 48 -21 97 -47 80 -43 95 -47 154 -47 52 0 82 8
152 37 47 20 123 48 167 62 l81 26 54 -58 c112 -122 156 -177 156 -195 0 -11
-36 -84 -80 -164 -44 -80 -86 -167 -92 -193 -10 -44 -8 -55 31 -167 23 -65 63
-182 89 -259 45 -133 50 -143 102 -194 48 -47 76 -63 210 -121 l155 -66 -3
-110 c-1 -60 -5 -137 -8 -172 -5 -57 -8 -62 -32 -68 -15 -3 -98 -28 -185 -55
-200 -63 -212 -74 -298 -255 -33 -71 -85 -179 -115 -239 -68 -140 -70 -175
-18 -308 38 -96 84 -234 84 -253 0 -9 -206 -199 -236 -217 -9 -5 -72 24 -173
78 -224 121 -203 121 -528 9 -315 -109 -299 -96 -403 -324 -41 -89 -79 -164
-84 -168 -20 -12 -320 -1 -334 12 -11 11 -51 135 -97 298 -24 88 -60 122 -200
189 -437 208 -413 202 -570 143 -141 -52 -235 -84 -252 -84 -17 0 -93 77 -171
173 l-55 68 86 173 c109 216 109 220 38 421 -28 77 -62 180 -77 229 -15 48
-41 109 -58 134 -34 51 -55 63 -256 153 -74 34 -137 64 -140 69 -3 4 -1 80 4
168 l9 160 116 37 c64 20 148 46 186 58 55 17 80 32 118 69 26 26 47 53 47 61
0 8 48 110 107 227 115 232 126 269 99 350 -8 25 -37 103 -65 175 -28 71 -51
137 -51 147 0 9 10 22 21 29 12 6 66 52 121 101 79 72 103 89 121 84 12 -3 88
-42 170 -86 179 -98 208 -104 317 -65 41 14 150 52 241 84 192 68 214 79 256
121 26 27 135 252 167 344 6 18 15 18 174 12 92 -4 170 -10 174 -14z"/>
<path d="M2480 3741 c-296 -32 -583 -167 -783 -369 -99 -100 -145 -159 -212
-272 -75 -128 -111 -220 -142 -362 -23 -106 -26 -147 -26 -298 -1 -239 30
-384 118 -562 178 -357 464 -586 863 -690 108 -29 130 -31 297 -32 243 -1 373
27 591 129 130 61 224 127 340 241 110 108 170 188 232 306 155 296 196 615
121 923 -40 166 -129 354 -226 482 -64 84 -214 229 -293 283 -128 87 -343 174
-508 206 -95 18 -272 25 -372 15z m420 -205 c117 -32 268 -106 380 -186 107
-77 142 -111 216 -210 114 -154 169 -265 216 -440 31 -114 31 -371 -1 -495
-46 -177 -91 -270 -205 -425 -84 -114 -129 -160 -233 -233 -151 -106 -286
-167 -448 -203 -104 -24 -348 -23 -450 0 -306 70 -599 287 -744 550 -105 193
-146 367 -138 590 6 176 35 293 110 450 118 245 288 411 542 532 168 80 295
105 510 99 121 -3 168 -9 245 -29z"/>
<path d="M2527 3223 c-26 -10 -63 -31 -83 -47 -40 -32 -120 -150 -188 -280
-44 -84 -55 -103 -101 -176 -28 -45 -168 -286 -202 -348 -113 -208 -123 -231
-123 -291 0 -68 13 -112 49 -162 28 -40 92 -85 141 -99 18 -5 286 -10 597 -11
l564 -1 64 31 c79 39 120 85 141 158 30 104 12 159 -143 418 -49 83 -92 159
-96 169 -7 17 -43 80 -227 391 -26 44 -58 98 -70 120 -32 58 -57 82 -114 110
-70 34 -148 40 -209 18z m142 -187 c19 -15 46 -59 171 -280 60 -107 130 -230
157 -273 225 -370 243 -417 190 -470 l-27 -28 -549 0 -549 0 -25 23 c-31 29
-40 62 -27 97 6 15 61 113 124 218 109 186 154 263 325 563 44 78 86 146 93
152 27 21 89 20 117 -2z"/>
<path d="M2553 2789 c-15 -15 -5 -451 11 -462 6 -4 31 -6 56 -5 41 3 45 6 51
33 4 17 7 121 8 231 1 176 -1 203 -15 208 -26 10 -99 7 -111 -5z"/>
<path d="M2584 2260 c-26 -10 -54 -48 -54 -72 0 -58 55 -95 114 -75 61 21 64
112 5 142 -32 17 -36 17 -65 5z"/>
</g>
</svg>
