<?xml version="1.0" standalone="no"?>
<!DOCTYPE svg PUBLIC "-//W3C//DTD SVG 20010904//EN"
 "http://www.w3.org/TR/2001/REC-SVG-20010904/DTD/svg10.dtd">
<svg version="1.0" xmlns="http://www.w3.org/2000/svg"
 width="225.000000pt" height="225.000000pt" viewBox="0 0 225.000000 225.000000"
 preserveAspectRatio="xMidYMid meet">

<g transform="translate(0.000000,225.000000) scale(0.100000,-0.100000)"
fill="#000000" stroke="none">
<path d="M1000 2239 c-434 -37 -819 -361 -957 -804 -26 -87 -27 -98 -27 -310
0 -212 1 -223 27 -310 163 -527 652 -859 1191 -806 389 38 728 273 899 623
147 299 151 658 13 962 -131 287 -404 522 -709 610 -78 23 -265 49 -322 45
-11 -1 -63 -5 -115 -10z m293 -144 c623 -108 985 -774 738 -1355 -209 -491
-782 -728 -1275 -527 -566 231 -788 915 -465 1432 211 339 611 518 1002 450z"/>
<path d="M1095 1678 c-11 -6 -22 -13 -25 -15 -3 -3 -7 -109 -10 -236 l-5 -232
-232 -5 c-127 -3 -233 -7 -236 -10 -22 -25 -28 -54 -17 -81 7 -16 13 -30 14
-31 0 -1 107 -5 236 -8 l235 -5 5 -235 c3 -129 7 -236 8 -236 1 -1 15 -7 31
-14 27 -11 56 -5 81 17 3 3 7 109 10 236 l5 232 232 5 c127 3 233 7 236 10 22
25 28 54 17 81 -7 16 -13 30 -14 31 0 1 -107 5 -236 8 l-235 5 -5 232 c-3 127
-7 233 -10 236 -10 9 -49 27 -57 27 -4 0 -17 -6 -28 -12z"/>
</g>
</svg>
