<?xml version="1.0" standalone="no"?>
<!DOCTYPE svg PUBLIC "-//W3C//DTD SVG 20010904//EN"
 "http://www.w3.org/TR/2001/REC-SVG-20010904/DTD/svg10.dtd">
<svg version="1.0" xmlns="http://www.w3.org/2000/svg"
 width="490.000000pt" height="490.000000pt" viewBox="0 0 490.000000 490.000000"
 preserveAspectRatio="xMidYMid meet">

<g transform="translate(0.000000,490.000000) scale(0.100000,-0.100000)"
fill="#c32439" stroke="none">
<path d="M2375 4024 c-46 -14 -108 -73 -868 -832 -450 -449 -833 -837 -850
-862 -41 -59 -49 -147 -19 -206 45 -86 132 -144 217 -144 72 0 105 21 228 139
63 61 117 111 121 111 3 0 6 -301 6 -668 0 -635 1 -670 18 -685 17 -16 116
-17 1220 -17 1189 0 1202 0 1222 20 20 20 20 33 20 685 0 366 3 665 7 665 3 0
55 -48 115 -107 60 -60 123 -116 141 -125 39 -21 126 -23 171 -4 46 19 114 82
137 127 30 60 26 144 -10 200 -44 68 -1642 1660 -1693 1686 -57 30 -121 36
-183 17z m140 -110 c11 -8 388 -382 837 -831 590 -589 819 -824 823 -844 20
-92 -90 -189 -168 -148 -14 8 -359 346 -768 752 -408 407 -753 746 -765 754
-19 12 -27 12 -46 2 -12 -7 -359 -348 -771 -758 -595 -594 -755 -748 -783
-755 -28 -8 -43 -6 -78 11 -62 30 -90 96 -67 155 10 26 1628 1645 1663 1665
31 17 99 16 123 -3z m502 -1006 l563 -563 0 -687 0 -688 -380 0 -380 0 0 454
0 455 -22 15 c-19 14 -70 16 -350 16 -315 0 -329 -1 -348 -20 -19 -19 -20 -33
-20 -470 l0 -450 -380 0 -380 0 0 692 0 692 563 558 c309 306 564 557 567 557
3 1 258 -252 567 -561z m-307 -1523 l0 -415 -260 0 -260 0 0 415 0 415 260 0
260 0 0 -415z"/>
<path d="M2353 2982 c-100 -36 -167 -111 -200 -221 -20 -69 -12 -127 27 -208
112 -229 439 -219 549 16 70 150 -2 335 -157 403 -65 29 -155 33 -219 10z
m214 -128 c21 -17 48 -50 61 -75 67 -127 -30 -288 -174 -289 -175 0 -267 205
-151 337 44 50 80 64 159 60 57 -2 72 -7 105 -33z"/>
</g>
</svg>
